<?xml version="1.0" encoding="utf-8"?>
<!-- Generator: Adobe Illustrator 16.0.0, SVG Export Plug-In . SVG Version: 6.00 Build 0)  -->
<!DOCTYPE svg PUBLIC "-//W3C//DTD SVG 1.1//EN" "http://www.w3.org/Graphics/SVG/1.1/DTD/svg11.dtd">
<svg version="1.1" xmlns="http://www.w3.org/2000/svg" xmlns:xlink="http://www.w3.org/1999/xlink" x="0px" y="0px" width="742px"
	 height="240.535px" viewBox="0 0 742 240.535" enable-background="new 0 0 742 240.535" xml:space="preserve">
<g id="Layer_7">
</g>
<g id="Layer_2">
	<linearGradient id="SVGID_1_" gradientUnits="userSpaceOnUse" x1="96.3335" y1="80.0347" x2="630.5117" y2="80.0347">
		<stop  offset="0" style="stop-color:#FFFFFF"/>
		<stop  offset="0.0057" style="stop-color:#FFFBF2"/>
		<stop  offset="0.038" style="stop-color:#FFEEC3"/>
		<stop  offset="0.0712" style="stop-color:#FFE59B"/>
		<stop  offset="0.1047" style="stop-color:#FFDD7A"/>
		<stop  offset="0.1385" style="stop-color:#FFD75A"/>
		<stop  offset="0.1726" style="stop-color:#FFD23C"/>
		<stop  offset="0.2074" style="stop-color:#FFCF23"/>
		<stop  offset="0.243" style="stop-color:#FFCD0E"/>
		<stop  offset="0.2809" style="stop-color:#FFCD05"/>
		<stop  offset="0.6685" style="stop-color:#F3903F"/>
		<stop  offset="0.8876" style="stop-color:#ED683C"/>
		<stop  offset="1" style="stop-color:#E93E3A"/>
	</linearGradient>
	<rect x="96.333" y="63.035" fill="url(#SVGID_1_)" width="534.178" height="34"/>
</g>
<g id="Layer_8">
</g>
<g id="Layer_1">
	<g>
		<path d="M91.952,7.28v16.38h-25.2v85.68h-17.22V23.66h-24.64V7.28H91.952z"/>
		<path d="M123.731,58.52l-4.06-8.68h11.62c2.8,6.068,5.132,11.248,7,15.54c1.866,4.294,3.406,7.91,4.62,10.85
			c1.212,2.94,2.17,5.32,2.87,7.14c0.7,1.82,1.236,3.29,1.61,4.41c0.372-2.52,0.862-4.806,1.47-6.86c0.606-2.052,1.47-4.386,2.59-7
			c1.12-2.612,2.542-5.786,4.27-9.52c1.726-3.732,3.85-8.586,6.37-14.56h13.44l-28.14,63c-1.774-3.546-3.36-7.022-4.76-10.43
			c-1.4-3.406-2.8-6.79-4.2-10.15s-2.824-6.742-4.27-10.15c-1.448-3.406-3.058-6.882-4.83-10.43
			c-3.174,7.094-6.184,13.954-9.03,20.58c-2.848,6.628-5.81,13.488-8.89,20.58l-26.74-63h13.44c2.52,6.068,4.572,10.968,6.16,14.7
			c1.586,3.734,2.846,6.908,3.78,9.52c0.932,2.614,1.632,4.924,2.1,6.93c0.466,2.008,0.886,4.27,1.26,6.79
			c0.28-0.84,0.63-1.82,1.05-2.94c0.42-1.12,1.05-2.73,1.89-4.83s2.006-4.852,3.5-8.26C119.343,68.344,121.303,63.934,123.731,58.52
			z"/>
		<path d="M239.51,67.41c-1.588-3.78-3.758-7.07-6.51-9.87c-2.754-2.8-6.044-5.016-9.87-6.65c-3.828-1.632-7.98-2.45-12.46-2.45
			c-4.388,0-8.518,0.818-12.39,2.45c-3.874,1.634-7.258,3.85-10.15,6.65c-1.714,1.658-3.201,3.493-4.473,5.495h19.312
			c0.072-0.033,0.138-0.073,0.21-0.105c2.192-0.98,4.55-1.47,7.07-1.47s4.876,0.49,7.07,1.47c2.192,0.98,4.106,2.288,5.74,3.92
			c1.632,1.634,2.94,3.548,3.92,5.74c0.98,2.194,1.47,4.55,1.47,7.07s-0.49,4.878-1.47,7.07c-0.98,2.194-2.288,4.108-3.92,5.74
			c-1.634,1.634-3.548,2.918-5.74,3.85c-2.194,0.934-4.55,1.4-7.07,1.4c-1.743,0-3.403-0.239-4.99-0.685h-21.313
			c1.237,1.918,2.641,3.677,4.253,5.235c2.846,2.754,6.182,4.878,10.01,6.37c3.826,1.492,7.932,2.24,12.32,2.24
			c4.572,0,8.772-0.818,12.6-2.45c3.826-1.632,7.14-3.872,9.94-6.72c2.8-2.846,4.97-6.182,6.51-10.01
			c1.54-3.826,2.31-7.886,2.31-12.18C241.89,75.228,241.096,71.19,239.51,67.41z"/>
		<path d="M405.971,7.84c-3.361,8.868-6.861,18.038-10.5,27.51c-3.641,9.474-7.258,18.854-10.85,28.14
			c-3.596,9.288-7.049,18.224-10.361,26.81c-3.314,8.588-6.277,16.428-8.889,23.52L342.41,56.98c-0.375-0.84-0.607-1.4-0.699-1.68
			c-0.096-0.28-0.234-0.84-0.42-1.68c-0.096,0.375-0.164,0.749-0.211,1.12c-0.049,0.374-0.117,0.7-0.209,0.98
			c-0.096,0.374-0.234,0.748-0.422,1.12c-3.359,7.374-6.578,14.56-9.658,21.56c-1.309,2.988-2.686,6.09-4.131,9.31
			c-1.447,3.22-2.869,6.394-4.27,9.52c-1.4,3.128-2.754,6.138-4.061,9.03c-1.309,2.894-2.475,5.506-3.5,7.84
			c-6.721-17.826-13.488-35.536-20.3-53.13c-6.814-17.592-13.58-35.302-20.3-53.13h19.46c4.2,11.854,8.236,23.008,12.111,33.46
			c3.871,10.454,6.881,19.74,9.029,27.86c0.186,0.749,0.371,1.588,0.561,2.52c0.186,0.934,0.371,1.774,0.559,2.52
			c0-0.56,0.211-1.376,0.631-2.45c0.42-1.072,0.723-1.89,0.91-2.45c0.092-0.466,0.42-1.33,0.98-2.59
			c0.559-1.26,1.211-2.73,1.959-4.41c0.746-1.68,1.586-3.522,2.52-5.53c0.934-2.006,1.867-4.036,2.801-6.09
			c2.24-4.76,4.666-9.986,7.279-15.68c-1.307-3.92-2.52-7.652-3.639-11.2c-1.029-2.986-2.031-5.996-3.01-9.03
			c-0.98-3.032-1.705-5.342-2.17-6.93h16.52c4.012,10.36,7.652,19.834,10.92,28.42c1.4,3.64,2.799,7.258,4.199,10.85
			c1.4,3.594,2.66,6.908,3.781,9.94c1.119,3.034,2.076,5.624,2.869,7.77c0.793,2.148,1.33,3.594,1.609,4.34
			c0.373,0.84,0.607,1.658,0.701,2.45c0.092,0.794,0.232,1.61,0.42,2.45c0.186-0.84,0.35-1.68,0.49-2.52
			c0.139-0.84,0.301-1.632,0.49-2.38c0.932-4.2,2.215-8.702,3.85-13.51c1.631-4.806,3.43-9.822,5.389-15.05
			c1.961-5.226,4.037-10.592,6.23-16.1c2.191-5.506,4.316-11.06,6.371-16.66H405.971z"/>
		<path d="M453.711,102.48c-2.895,2.614-6.395,4.668-10.5,6.16c-4.108,1.492-8.309,2.24-12.601,2.24
			c-4.388,0-8.518-0.818-12.39-2.45c-3.874-1.632-7.234-3.872-10.08-6.72c-2.849-2.846-5.11-6.16-6.79-9.94
			c-1.68-3.78-2.52-7.816-2.52-12.11c0-4.292,0.84-8.33,2.52-12.11c1.68-3.78,3.941-7.092,6.79-9.94
			c2.846-2.846,6.16-5.086,9.94-6.72c3.779-1.632,7.77-2.45,11.97-2.45c6.72,0,12.622,2.03,17.71,6.09
			c5.086,4.06,8.702,9.404,10.85,16.03c-2.8,1.028-6.044,2.264-9.729,3.71c-3.688,1.448-7.538,2.964-11.55,4.55
			c-4.015,1.588-8.028,3.198-12.04,4.83c-4.015,1.634-7.7,3.104-11.061,4.41c1.586,2.894,3.78,5.228,6.58,7
			c2.8,1.774,5.972,2.66,9.521,2.66c2.426,0,4.875-0.442,7.35-1.33c2.472-0.886,4.502-2.076,6.09-3.57L453.711,102.48z
			 M441.95,67.48c-1.119-2.052-2.8-3.57-5.04-4.55c-2.239-0.98-4.434-1.47-6.579-1.47c-2.521,0-4.9,0.49-7.141,1.47
			s-4.154,2.288-5.74,3.92c-1.588,1.634-2.848,3.5-3.779,5.6c-0.935,2.1-1.4,4.27-1.4,6.51v0.56c2.332-0.932,4.83-1.936,7.49-3.01
			c2.66-1.072,5.32-2.17,7.979-3.29c2.66-1.12,5.202-2.17,7.63-3.15C437.797,69.09,439.99,68.228,441.95,67.48z"/>
		<path d="M520.071,102.48c-2.895,2.614-6.395,4.668-10.5,6.16c-4.108,1.492-8.309,2.24-12.601,2.24
			c-4.388,0-8.518-0.818-12.39-2.45c-3.874-1.632-7.234-3.872-10.08-6.72c-2.849-2.846-5.11-6.16-6.79-9.94
			c-1.68-3.78-2.52-7.816-2.52-12.11c0-4.292,0.84-8.33,2.52-12.11c1.68-3.78,3.941-7.092,6.79-9.94
			c2.846-2.846,6.16-5.086,9.94-6.72c3.779-1.632,7.77-2.45,11.97-2.45c6.72,0,12.622,2.03,17.71,6.09
			c5.086,4.06,8.702,9.404,10.85,16.03c-2.8,1.028-6.044,2.264-9.729,3.71c-3.688,1.448-7.538,2.964-11.55,4.55
			c-4.015,1.588-8.028,3.198-12.04,4.83c-4.015,1.634-7.7,3.104-11.061,4.41c1.586,2.894,3.78,5.228,6.58,7
			c2.8,1.774,5.972,2.66,9.521,2.66c2.426,0,4.875-0.442,7.35-1.33c2.472-0.886,4.502-2.076,6.09-3.57L520.071,102.48z
			 M508.311,67.48c-1.119-2.052-2.8-3.57-5.04-4.55c-2.239-0.98-4.434-1.47-6.579-1.47c-2.521,0-4.9,0.49-7.141,1.47
			s-4.154,2.288-5.74,3.92c-1.588,1.634-2.848,3.5-3.779,5.6c-0.935,2.1-1.4,4.27-1.4,6.51v0.56c2.332-0.932,4.83-1.936,7.49-3.01
			c2.66-1.072,5.32-2.17,7.979-3.29c2.66-1.12,5.202-2.17,7.63-3.15C504.157,69.09,506.351,68.228,508.311,67.48z"/>
		<path d="M578.17,48.44l7.98,7.84c-3.548,3.268-6.93,6.464-10.15,9.59c-3.22,3.128-6.604,6.324-10.149,9.59
			c4.2,5.6,8.306,11.248,12.319,16.94c4.013,5.694,8.12,11.34,12.32,16.94h-15.4c-3.079-4.2-6.208-8.376-9.38-12.53
			c-3.174-4.152-6.254-8.33-9.239-12.53l-7.7,7v18.06h-13.44V0h13.44v75.74c5.04-4.76,9.939-9.31,14.7-13.65
			C568.23,57.75,573.13,53.2,578.17,48.44z"/>
	</g>
	<g>
		<path d="M148.129,238.701v-102.06h27.86c5.04,0,9.612,0.49,13.72,1.47c4.106,0.98,7.606,2.52,10.5,4.62
			c2.892,2.1,5.11,4.854,6.65,8.26c1.54,3.408,2.31,7.49,2.31,12.25c0,2.614-0.258,5.158-0.77,7.63
			c-0.514,2.474-1.354,4.76-2.52,6.86c-1.168,2.1-2.684,3.944-4.55,5.53c-1.868,1.588-4.2,2.8-7,3.64
			c2.332,0.468,4.69,1.26,7.07,2.38c2.38,1.12,4.502,2.638,6.37,4.55c1.866,1.914,3.382,4.294,4.55,7.14
			c1.166,2.848,1.75,6.184,1.75,10.01c0,4.948-0.958,9.17-2.87,12.67c-1.914,3.5-4.434,6.37-7.56,8.61
			c-3.128,2.24-6.744,3.874-10.85,4.9c-4.108,1.028-8.354,1.54-12.74,1.54H148.129z M165.209,152.181v27.72h12.88
			c4.76,0,8.282-1.4,10.57-4.2c2.286-2.8,3.43-6.16,3.43-10.08c0-4.572-1.4-7.956-4.2-10.15c-2.8-2.192-6.58-3.29-11.34-3.29
			H165.209z M165.209,194.46v28.7h13.44c2.52,0,4.9-0.302,7.14-0.91c2.24-0.606,4.2-1.492,5.88-2.66
			c1.68-1.166,2.986-2.66,3.92-4.48c0.932-1.82,1.4-3.942,1.4-6.37c0-2.706-0.56-4.97-1.68-6.79s-2.614-3.29-4.48-4.41
			c-1.868-1.12-3.99-1.912-6.37-2.38c-2.38-0.466-4.83-0.7-7.35-0.7H165.209z"/>
		<path d="M283.229,240.101h-11.2l-1.68-16.521c-2.148,4.76-5.11,8.704-8.89,11.83c-3.78,3.128-8.75,4.69-14.91,4.69
			c-6.16,0-11.038-1.61-14.63-4.83c-3.594-3.22-5.484-7.49-5.67-12.811v-43.26h13.44v36.96c0.186,2.894,1.19,5.344,3.01,7.35
			c1.82,2.008,4.736,3.104,8.75,3.29c2.706,0,5.18-0.466,7.42-1.4c2.24-0.932,4.176-2.24,5.81-3.92
			c1.632-1.68,2.916-3.686,3.85-6.02c0.932-2.332,1.4-4.852,1.4-7.56v-28.7h13.3V240.101z"/>
		<path d="M333.627,184.521c-0.56,0.84-1.238,1.798-2.03,2.87c-0.794,1.074-1.564,2.078-2.31,3.01c-0.748,0.934-1.634,2.1-2.66,3.5
			c-0.934-0.652-1.844-1.166-2.73-1.54c-0.888-0.372-1.914-0.722-3.08-1.05c-1.168-0.326-2.358-0.49-3.57-0.49
			c-1.308,0-2.684,0.304-4.13,0.91c-1.448,0.608-2.17,1.844-2.17,3.71c0,1.588,0.63,2.918,1.89,3.99c1.26,1.074,2.8,2.054,4.62,2.94
			c1.82,0.888,3.826,1.798,6.02,2.73c2.191,0.934,4.2,2.1,6.02,3.5c1.82,1.4,3.36,3.15,4.62,5.25c1.26,2.1,1.89,4.69,1.89,7.77
			c0,2.708-0.49,5.18-1.47,7.42c-0.98,2.24-2.38,4.154-4.2,5.74c-1.82,1.588-3.99,2.848-6.51,3.78
			c-2.52,0.932-5.368,1.399-8.54,1.399c-3.828,0-7.538-0.654-11.13-1.96c-3.594-1.306-6.418-3.172-8.47-5.6
			c0.652-0.746,1.446-1.68,2.38-2.8c0.932-1.12,1.82-2.192,2.66-3.22c0.84-1.026,1.866-2.24,3.08-3.64c0-0.092,0.302,0.07,0.91,0.49
			c0.606,0.42,1.422,0.91,2.45,1.47c1.026,0.56,2.24,1.074,3.64,1.54c1.4,0.468,2.846,0.7,4.34,0.7c2.332,0,4.13-0.512,5.39-1.54
			c1.26-1.026,1.89-2.286,1.89-3.78c0-1.492-0.63-2.706-1.89-3.64c-1.26-0.932-2.8-1.796-4.62-2.59
			c-1.82-0.792-3.828-1.656-6.02-2.59c-2.194-0.932-4.2-2.1-6.02-3.5c-1.82-1.4-3.36-3.196-4.62-5.39
			c-1.26-2.192-1.89-4.97-1.89-8.33c0-3.36,0.606-6.16,1.82-8.4c1.212-2.24,2.776-4.06,4.69-5.46c1.912-1.4,3.99-2.402,6.23-3.01
			c2.24-0.605,4.432-0.91,6.58-0.91c2.892,0,5.902,0.584,9.03,1.75C328.843,180.719,331.479,182.375,333.627,184.521z"/>
		<path d="M347.206,156.101c0-2.426,0.886-4.432,2.659-6.02c1.773-1.586,3.688-2.38,5.74-2.38s3.941,0.794,5.67,2.38
			c1.727,1.588,2.59,3.594,2.59,6.02c0,2.52-0.863,4.55-2.59,6.09c-1.729,1.54-3.617,2.31-5.67,2.31s-3.967-0.77-5.74-2.31
			C348.092,160.651,347.206,158.621,347.206,156.101z M362.186,238.701h-13.439v-59.5h13.439V238.701z"/>
		<path d="M378.705,179.201h11.76c0.186,3.36,0.396,6.09,0.631,8.19c0.23,2.1,0.441,4.458,0.629,7.07c2.146-5.04,5.18-9.1,9.1-12.18
			s8.82-4.62,14.701-4.62c6.064,0,10.895,1.658,14.49,4.97c3.592,3.314,5.48,7.63,5.67,12.95v43.12h-13.301v-36.82
			c-0.188-2.892-1.215-5.39-3.08-7.49c-1.867-2.1-4.76-3.242-8.68-3.43c-2.709,0-5.205,0.49-7.49,1.47
			c-2.287,0.98-4.248,2.31-5.881,3.99c-1.633,1.68-2.893,3.688-3.779,6.02c-0.889,2.334-1.33,4.854-1.33,7.56v28.7h-13.439V179.201z
			"/>
		<path d="M502.883,231.841c-2.895,2.614-6.395,4.668-10.5,6.16c-4.107,1.492-8.309,2.24-12.6,2.24
			c-4.389,0-8.518-0.818-12.391-2.45s-7.234-3.872-10.08-6.72c-2.848-2.846-5.109-6.16-6.789-9.94c-1.68-3.78-2.52-7.816-2.52-12.11
			c0-4.292,0.84-8.33,2.52-12.11c1.68-3.78,3.941-7.092,6.789-9.94c2.846-2.846,6.16-5.086,9.941-6.72
			c3.779-1.632,7.77-2.45,11.969-2.45c6.721,0,12.623,2.03,17.711,6.09c5.086,4.06,8.701,9.404,10.85,16.03
			c-2.801,1.028-6.045,2.264-9.73,3.71c-3.688,1.448-7.537,2.964-11.549,4.55c-4.016,1.588-8.029,3.198-12.041,4.83
			c-4.014,1.634-7.699,3.104-11.061,4.41c1.586,2.894,3.781,5.228,6.58,7c2.801,1.774,5.973,2.66,9.521,2.66
			c2.426,0,4.875-0.442,7.35-1.33c2.471-0.886,4.502-2.076,6.09-3.57L502.883,231.841z M491.123,196.841
			c-1.119-2.052-2.801-3.57-5.041-4.55c-2.238-0.98-4.434-1.47-6.578-1.47c-2.521,0-4.9,0.49-7.141,1.47s-4.154,2.288-5.74,3.92
			c-1.588,1.634-2.848,3.5-3.779,5.6c-0.936,2.1-1.4,4.27-1.4,6.51v0.56c2.332-0.932,4.83-1.936,7.49-3.01
			c2.66-1.072,5.32-2.17,7.979-3.29c2.66-1.12,5.203-2.17,7.631-3.15C486.969,198.451,489.162,197.589,491.123,196.841z"/>
		<path d="M552.023,184.521c-0.561,0.84-1.238,1.798-2.029,2.87c-0.795,1.074-1.564,2.078-2.311,3.01
			c-0.748,0.934-1.635,2.1-2.66,3.5c-0.934-0.652-1.844-1.166-2.73-1.54c-0.889-0.372-1.914-0.722-3.08-1.05
			c-1.168-0.326-2.357-0.49-3.57-0.49c-1.307,0-2.684,0.304-4.129,0.91c-1.449,0.608-2.17,1.844-2.17,3.71
			c0,1.588,0.629,2.918,1.889,3.99c1.262,1.074,2.801,2.054,4.621,2.94c1.82,0.888,3.826,1.798,6.02,2.73
			c2.191,0.934,4.201,2.1,6.02,3.5c1.82,1.4,3.361,3.15,4.621,5.25s1.889,4.69,1.889,7.77c0,2.708-0.488,5.18-1.469,7.42
			c-0.98,2.24-2.381,4.154-4.201,5.74c-1.818,1.588-3.988,2.848-6.51,3.78c-2.52,0.932-5.367,1.399-8.539,1.399
			c-3.828,0-7.539-0.654-11.131-1.96c-3.594-1.306-6.418-3.172-8.469-5.6c0.65-0.746,1.445-1.68,2.379-2.8
			c0.932-1.12,1.82-2.192,2.66-3.22c0.84-1.026,1.865-2.24,3.08-3.64c0-0.092,0.303,0.07,0.91,0.49
			c0.605,0.42,1.422,0.91,2.449,1.47s2.24,1.074,3.641,1.54c1.4,0.468,2.846,0.7,4.34,0.7c2.332,0,4.131-0.512,5.391-1.54
			c1.26-1.026,1.891-2.286,1.891-3.78c0-1.492-0.631-2.706-1.891-3.64c-1.26-0.932-2.801-1.796-4.621-2.59
			c-1.818-0.792-3.828-1.656-6.02-2.59c-2.193-0.932-4.199-2.1-6.02-3.5s-3.359-3.196-4.621-5.39c-1.26-2.192-1.889-4.97-1.889-8.33
			c0-3.36,0.605-6.16,1.82-8.4c1.211-2.24,2.775-4.06,4.689-5.46c1.912-1.4,3.99-2.402,6.23-3.01c2.24-0.605,4.432-0.91,6.58-0.91
			c2.891,0,5.9,0.584,9.029,1.75C547.238,180.719,549.875,182.375,552.023,184.521z"/>
		<path d="M601.021,184.521c-0.559,0.84-1.236,1.798-2.029,2.87c-0.793,1.074-1.564,2.078-2.311,3.01
			c-0.748,0.934-1.633,2.1-2.66,3.5c-0.934-0.652-1.844-1.166-2.729-1.54c-0.889-0.372-1.914-0.722-3.08-1.05
			c-1.168-0.326-2.359-0.49-3.57-0.49c-1.309,0-2.684,0.304-4.131,0.91c-1.447,0.608-2.17,1.844-2.17,3.71
			c0,1.588,0.631,2.918,1.891,3.99c1.26,1.074,2.801,2.054,4.619,2.94c1.82,0.888,3.826,1.798,6.021,2.73
			c2.191,0.934,4.199,2.1,6.02,3.5s3.359,3.15,4.619,5.25s1.891,4.69,1.891,7.77c0,2.708-0.49,5.18-1.471,7.42
			c-0.979,2.24-2.379,4.154-4.199,5.74c-1.82,1.588-3.99,2.848-6.51,3.78c-2.52,0.932-5.369,1.399-8.541,1.399
			c-3.828,0-7.537-0.654-11.129-1.96c-3.594-1.306-6.418-3.172-8.471-5.6c0.652-0.746,1.445-1.68,2.381-2.8
			c0.932-1.12,1.82-2.192,2.66-3.22c0.84-1.026,1.865-2.24,3.08-3.64c0-0.092,0.301,0.07,0.91,0.49
			c0.605,0.42,1.422,0.91,2.449,1.47c1.025,0.56,2.24,1.074,3.641,1.54c1.398,0.468,2.846,0.7,4.34,0.7
			c2.332,0,4.129-0.512,5.389-1.54c1.26-1.026,1.891-2.286,1.891-3.78c0-1.492-0.631-2.706-1.891-3.64
			c-1.26-0.932-2.799-1.796-4.619-2.59c-1.82-0.792-3.828-1.656-6.02-2.59c-2.195-0.932-4.201-2.1-6.021-3.5
			c-1.818-1.4-3.359-3.196-4.619-5.39c-1.26-2.192-1.891-4.97-1.891-8.33c0-3.36,0.607-6.16,1.82-8.4
			c1.213-2.24,2.775-4.06,4.689-5.46c1.912-1.4,3.99-2.402,6.23-3.01c2.24-0.605,4.432-0.91,6.58-0.91
			c2.893,0,5.902,0.584,9.031,1.75C596.238,180.719,598.875,182.375,601.021,184.521z"/>
	</g>
</g>
<g id="Layer_4">
	<g id="Layer_5">
		<path fill="#EB5744" stroke="#000000" stroke-width="4" stroke-miterlimit="10" d="M658.192,56.912c0,0-4.367-6.731-10.234-11.397
			c-4.056-3.225-13.713-6.534-14.859-6.774c-2.587-0.541-10.599-0.328-10.599-0.328s10.27,6.97,12.383,8.551
			c1.533,1.147,8.948,10.955,8.948,10.955"/>
		<path fill="#EB5744" stroke="#000000" stroke-width="4" stroke-miterlimit="10" d="M636.559,41.508"/>
		<path fill="#EB5744" stroke="#000000" stroke-width="4" stroke-miterlimit="10" d="M658.192,104.934
			c0,0-4.367,6.731-10.234,11.397c-4.056,3.225-13.713,6.535-14.859,6.774c-2.587,0.541-10.599,0.328-10.599,0.328
			s10.27-6.97,12.383-8.551c1.533-1.147,8.948-10.955,8.948-10.955"/>
	</g>
	<path fill="#C5C9CD" stroke="#000000" stroke-width="4" stroke-miterlimit="10" d="M630.512,101.898
		c8.874,2.145,19.231,3.378,30.301,3.378c32.827,0.001,59.438-24.182,59.438-24.182s-26.61-24.183-59.438-24.183
		c-11.069,0-21.427,1.234-30.301,3.378V101.898z"/>
	<g id="Layer_6">
		
			<ellipse fill="#FFFFFF" stroke="#000000" stroke-width="4" stroke-miterlimit="10" cx="671.012" cy="81.094" rx="11.072" ry="10.781"/>
	</g>
	<line fill="none" stroke="#000000" stroke-width="4" stroke-miterlimit="10" x1="696.403" y1="65.656" x2="696.403" y2="96.533"/>
	<line fill="none" stroke="#000000" stroke-width="4" stroke-miterlimit="10" x1="641.655" y1="58.201" x2="641.655" y2="103.988"/>
</g>
</svg>
